<svg xmlns="http://www.w3.org/2000/svg" xmlns:xlink="http://www.w3.org/1999/xlink" width="2000" zoomAndPan="magnify" viewBox="0 0 375 374.999991" height="2000" preserveAspectRatio="xMidYMid meet" version="1.0"><defs><g/><clipPath id="669ad7d2a0"><path d="M 126.210938 125.542969 L 248.964844 125.542969 L 248.964844 248.296875 L 126.210938 248.296875 Z M 126.210938 125.542969 " clip-rule="nonzero"/></clipPath><clipPath id="4093ea9f65"><path d="M 150.355469 146.457031 L 224.558594 146.457031 L 224.558594 234.402344 L 150.355469 234.402344 Z M 150.355469 146.457031 " clip-rule="nonzero"/></clipPath></defs><rect x="-37.5" width="450" fill="#ffffff" y="-37.499999" height="449.999989" fill-opacity="1"/><rect x="-37.5" width="450" fill="#ffffff" y="-37.499999" height="449.999989" fill-opacity="1"/><rect x="-37.5" width="450" fill="#ffffff" y="-37.499999" height="449.999989" fill-opacity="1"/><g clip-path="url(#669ad7d2a0)"><path fill="#a3896c" d="M 187.585938 125.542969 L 197.996094 130.898438 L 209.351562 129.382812 L 216.796875 137.753906 L 227.78125 139.980469 L 231.847656 150.234375 L 241.453125 155.941406 L 241.839844 167.050781 L 248.964844 175.894531 L 245.460938 186.921875 L 248.964844 197.949219 L 241.839844 206.792969 L 241.453125 217.898438 L 231.847656 223.605469 L 227.78125 233.863281 L 216.796875 236.089844 L 209.351562 244.457031 L 197.996094 242.945312 L 187.585938 248.296875 L 177.179688 242.945312 L 165.824219 244.457031 L 158.378906 236.089844 L 147.394531 233.863281 L 143.324219 223.605469 L 133.722656 217.898438 L 133.335938 206.792969 L 126.210938 197.949219 L 129.714844 186.921875 L 126.210938 175.894531 L 133.335938 167.050781 L 133.722656 155.941406 L 143.324219 150.234375 L 147.394531 139.980469 L 158.378906 137.753906 L 165.824219 129.382812 L 177.179688 130.898438 L 187.585938 125.542969 " fill-opacity="1" fill-rule="evenodd"/></g><g clip-path="url(#4093ea9f65)"><path fill="#ffffff" d="M 215.222656 146.617188 C 217.300781 146.527344 219.386719 146.476562 221.46875 146.53125 C 222.257812 146.574219 223.046875 146.597656 223.820312 146.757812 C 224.042969 146.808594 224.277344 146.863281 224.453125 147.011719 C 224.558594 147.097656 224.550781 147.25 224.484375 147.359375 C 224.335938 147.609375 224.078125 147.773438 223.828125 147.917969 C 223.394531 148.152344 222.945312 148.367188 222.484375 148.546875 C 221.503906 148.898438 220.535156 149.292969 219.554688 149.652344 C 217.613281 150.363281 215.652344 151.03125 213.710938 151.742188 C 211.824219 152.429688 209.941406 153.140625 208.121094 153.992188 C 206.480469 154.773438 204.867188 155.625 203.394531 156.6875 C 202.597656 157.246094 201.839844 157.859375 201.113281 158.511719 C 200.875 158.6875 200.695312 158.933594 200.457031 159.117188 C 200.265625 159.265625 200.105469 159.449219 199.933594 159.617188 C 199.789062 159.765625 199.628906 159.902344 199.5 160.070312 C 199.308594 160.328125 199.042969 160.519531 198.851562 160.777344 C 198.277344 161.402344 197.742188 162.070312 197.234375 162.753906 C 196.707031 163.519531 196.160156 164.300781 195.898438 165.207031 C 195.792969 165.527344 195.761719 165.902344 195.964844 166.191406 C 196.222656 166.527344 196.621094 166.707031 196.996094 166.882812 C 197.941406 167.300781 198.914062 167.648438 199.886719 168.003906 C 201.035156 168.417969 202.191406 168.8125 203.347656 169.210938 C 204.140625 169.484375 204.941406 169.738281 205.722656 170.054688 C 206.417969 170.335938 207.097656 170.6875 207.679688 171.171875 C 208.210938 171.621094 208.664062 172.15625 209.078125 172.710938 C 209.703125 173.550781 210.242188 174.441406 210.824219 175.308594 C 211.183594 175.859375 211.578125 176.398438 211.832031 177.011719 C 211.980469 177.378906 212.042969 177.796875 211.917969 178.179688 C 211.761719 178.683594 211.417969 179.105469 211.046875 179.46875 C 210.382812 180.15625 209.558594 180.660156 208.796875 181.230469 C 208.574219 181.40625 208.316406 181.574219 208.203125 181.847656 C 208.109375 182.074219 208.234375 182.308594 208.351562 182.5 C 208.597656 182.878906 208.917969 183.207031 209.210938 183.550781 C 210.269531 184.730469 211.292969 185.949219 212.144531 187.289062 C 213.070312 188.726562 213.964844 190.214844 215.207031 191.40625 C 216.84375 192.976562 218.8125 194.140625 220.820312 195.164062 C 220.054688 194.839844 219.308594 194.476562 218.554688 194.125 C 217.550781 193.636719 216.539062 193.160156 215.597656 192.5625 C 214.777344 192.050781 214.015625 191.449219 213.335938 190.761719 C 212.132812 189.539062 211.1875 188.097656 210.226562 186.6875 C 209.335938 185.347656 208.398438 184.027344 207.300781 182.847656 C 207.121094 182.671875 206.925781 182.507812 206.773438 182.304688 C 206.597656 182.058594 206.328125 181.910156 206.125 181.6875 C 205.917969 181.464844 205.679688 181.265625 205.5 181.015625 C 205.316406 180.792969 205.109375 180.566406 205.046875 180.277344 C 205 180.035156 205.210938 179.855469 205.390625 179.734375 C 205.769531 179.484375 206.1875 179.296875 206.570312 179.050781 C 207.242188 178.621094 207.878906 178.125 208.40625 177.523438 C 208.703125 177.179688 208.972656 176.746094 208.894531 176.273438 C 208.816406 175.871094 208.546875 175.535156 208.253906 175.265625 C 207.921875 174.902344 207.515625 174.621094 207.105469 174.359375 C 206.25 173.835938 205.277344 173.453125 204.265625 173.421875 C 203.90625 173.441406 203.535156 173.507812 203.222656 173.691406 C 202.824219 173.949219 202.613281 174.40625 202.519531 174.859375 C 202.390625 175.351562 202.417969 175.863281 202.421875 176.367188 C 202.464844 176.992188 202.589844 177.609375 202.648438 178.234375 C 202.65625 178.457031 202.605469 178.71875 202.410156 178.851562 C 202.25 178.980469 202.023438 178.90625 201.875 178.800781 C 201.410156 178.4375 201.152344 177.882812 200.9375 177.347656 C 200.601562 176.492188 200.355469 175.605469 200.160156 174.707031 C 200.023438 174.085938 199.925781 173.453125 199.914062 172.816406 C 199.9375 172.441406 200.003906 172.042969 200.25 171.742188 C 200.511719 171.425781 200.890625 171.234375 201.261719 171.070312 C 201.839844 170.828125 202.457031 170.683594 203.074219 170.589844 C 203.390625 170.539062 203.710938 170.542969 204.03125 170.539062 C 204.46875 170.542969 204.90625 170.539062 205.339844 170.5625 C 204.542969 170.265625 203.714844 170.050781 202.90625 169.785156 C 201.953125 169.496094 201.011719 169.179688 200.074219 168.839844 C 198.863281 168.402344 197.671875 167.898438 196.453125 167.476562 C 195.3125 167.054688 194.128906 166.722656 192.917969 166.570312 C 191.996094 166.460938 191.070312 166.386719 190.140625 166.359375 C 189.734375 166.296875 189.324219 166.355469 188.917969 166.285156 C 188.445312 166.253906 187.960938 166.238281 187.507812 166.082031 C 187.632812 165.949219 187.816406 165.917969 187.980469 165.855469 C 188.703125 165.605469 189.394531 165.261719 190.003906 164.800781 C 190.960938 164.078125 191.675781 163.101562 192.394531 162.15625 C 193.339844 160.882812 194.273438 159.601562 195.34375 158.429688 C 196.328125 157.359375 197.390625 156.359375 198.542969 155.472656 C 199.398438 154.820312 200.296875 154.21875 201.28125 153.78125 C 201.96875 153.472656 202.714844 153.289062 203.472656 153.285156 C 204.394531 153.265625 205.300781 153.484375 206.222656 153.472656 C 206.945312 153.472656 207.652344 153.28125 208.324219 153.035156 C 209.21875 152.710938 210.078125 152.304688 210.945312 151.917969 C 211.933594 151.476562 212.933594 151.046875 213.957031 150.6875 C 215.71875 150.0625 217.527344 149.574219 219.332031 149.078125 C 220.117188 148.859375 220.910156 148.652344 221.683594 148.378906 C 222 148.25 222.324219 148.113281 222.589844 147.890625 C 222.28125 147.707031 221.910156 147.707031 221.5625 147.695312 C 221.035156 147.640625 220.503906 147.648438 219.976562 147.695312 C 219.59375 147.714844 219.207031 147.683594 218.824219 147.722656 C 218.601562 147.757812 218.378906 147.75 218.15625 147.753906 C 217.925781 147.75 217.695312 147.804688 217.460938 147.796875 C 217.179688 147.789062 216.902344 147.855469 216.621094 147.847656 C 214.816406 147.976562 213.011719 148.117188 211.210938 148.3125 C 209.21875 148.527344 207.230469 148.769531 205.257812 149.125 C 203 149.535156 200.753906 150.101562 198.660156 151.058594 C 196.195312 152.1875 193.988281 153.816406 192.015625 155.660156 C 191.75 155.875 191.527344 156.132812 191.28125 156.371094 C 191.023438 156.640625 190.738281 156.886719 190.503906 157.179688 C 189.394531 158.355469 188.378906 159.625 187.476562 160.96875 C 186.730469 162.121094 185.980469 163.3125 185.667969 164.667969 C 185.53125 165.191406 185.476562 165.777344 185.105469 166.199219 C 184.898438 166.449219 184.554688 166.476562 184.253906 166.496094 C 183.484375 166.488281 182.742188 166.238281 181.972656 166.222656 C 180.582031 166.191406 179.242188 166.601562 177.871094 166.757812 C 177.675781 166.773438 177.46875 166.792969 177.285156 166.707031 C 177.394531 166.503906 177.605469 166.378906 177.792969 166.25 C 178.414062 165.84375 179.066406 165.460938 179.597656 164.933594 C 180.15625 164.394531 180.574219 163.726562 180.914062 163.03125 C 181.371094 162.09375 181.703125 161.097656 181.980469 160.09375 C 182.246094 159.109375 182.46875 158.117188 182.628906 157.109375 C 182.742188 156.378906 182.835938 155.640625 182.78125 154.898438 C 182.722656 154.554688 182.648438 154.179688 182.390625 153.917969 C 182.242188 153.753906 182.035156 153.65625 181.828125 153.585938 C 181.414062 153.472656 180.992188 153.394531 180.570312 153.339844 C 180.222656 153.3125 179.859375 153.308594 179.535156 153.457031 C 179.238281 153.597656 179.035156 153.875 178.910156 154.171875 C 178.570312 154.957031 178.460938 155.808594 178.289062 156.636719 C 178.039062 157.933594 177.777344 159.226562 177.539062 160.523438 C 177.386719 161.414062 177.164062 162.285156 176.980469 163.167969 C 176.628906 164.761719 176.210938 166.355469 175.507812 167.832031 C 175.125 168.578125 174.746094 169.324219 174.292969 170.027344 C 173.519531 171.253906 172.667969 172.429688 171.710938 173.515625 C 171.375 173.863281 171.03125 174.203125 170.6875 174.542969 C 170.328125 174.871094 169.9375 175.164062 169.585938 175.5 C 169.078125 175.917969 168.652344 176.445312 168.363281 177.039062 C 167.921875 177.910156 167.671875 178.890625 167.722656 179.867188 C 167.765625 180.695312 168.066406 181.492188 168.507812 182.1875 C 168.960938 182.898438 169.566406 183.492188 170.109375 184.132812 C 170.507812 184.601562 170.878906 185.113281 171.054688 185.714844 C 171.347656 186.660156 171.214844 187.671875 171.039062 188.628906 C 170.8125 189.78125 170.484375 190.914062 170.167969 192.046875 C 169.792969 193.308594 169.359375 194.554688 168.773438 195.734375 C 168.351562 196.59375 167.894531 197.433594 167.453125 198.285156 C 167.074219 199.03125 166.707031 199.796875 166.566406 200.628906 C 166.472656 201.144531 166.503906 201.710938 166.765625 202.179688 C 166.976562 202.5625 167.378906 202.796875 167.777344 202.945312 C 168.21875 203.109375 168.703125 203.101562 169.160156 203.019531 C 169.867188 202.886719 170.539062 202.605469 171.199219 202.3125 C 172.230469 201.851562 173.234375 201.335938 174.25 200.839844 C 174.566406 200.6875 174.882812 200.535156 175.210938 200.402344 C 175.410156 200.324219 175.617188 200.242188 175.835938 200.253906 C 175.867188 200.378906 175.773438 200.480469 175.703125 200.566406 C 175.511719 200.78125 175.304688 200.976562 175.082031 201.160156 C 174.316406 201.816406 173.5 202.414062 172.679688 203 C 171.980469 203.507812 171.253906 203.996094 170.632812 204.597656 C 170.039062 205.210938 169.703125 206.011719 169.445312 206.8125 C 169.359375 207.066406 169.292969 207.324219 169.179688 207.570312 C 169.132812 207.65625 169.078125 207.773438 168.960938 207.769531 C 168.730469 207.578125 168.671875 207.269531 168.558594 207.011719 C 168.402344 206.558594 168.203125 206.125 168.019531 205.679688 C 167.761719 205.207031 167.5625 204.699219 167.269531 204.242188 C 167.101562 203.996094 166.953125 203.71875 166.699219 203.546875 C 166.601562 203.480469 166.476562 203.503906 166.375 203.542969 C 166.234375 203.679688 166.171875 203.875 166.132812 204.0625 C 166.042969 204.4375 165.996094 204.820312 165.992188 205.207031 C 165.9375 206.175781 166.136719 207.15625 166.582031 208.019531 C 166.941406 208.742188 167.417969 209.402344 167.921875 210.03125 C 168.523438 210.773438 169.179688 211.476562 169.875 212.132812 C 170.472656 212.679688 171.09375 213.210938 171.792969 213.621094 C 172.410156 213.984375 173.105469 214.222656 173.824219 214.28125 C 174.972656 214.371094 176.121094 214.175781 177.238281 213.921875 C 180.070312 213.285156 182.726562 212.0625 185.535156 211.34375 C 187.445312 210.835938 189.417969 210.632812 191.363281 210.320312 C 192.519531 210.132812 193.675781 209.917969 194.78125 209.53125 C 196.285156 209.015625 197.660156 208.167969 198.863281 207.132812 C 200.066406 206.097656 201.144531 204.925781 202.144531 203.695312 C 202.933594 202.730469 203.660156 201.714844 204.351562 200.675781 C 204.5 200.472656 204.617188 200.238281 204.824219 200.089844 C 204.820312 200.378906 204.683594 200.636719 204.570312 200.894531 C 204.148438 201.769531 203.59375 202.574219 203.019531 203.355469 C 202.015625 204.699219 200.914062 205.972656 199.765625 207.195312 C 199.28125 207.707031 198.765625 208.1875 198.273438 208.6875 C 197.59375 209.285156 196.910156 209.886719 196.152344 210.390625 C 194.96875 211.226562 193.628906 211.792969 192.308594 212.375 C 191.542969 212.730469 190.765625 213.128906 190.183594 213.753906 C 189.777344 214.121094 189.507812 214.605469 189.28125 215.097656 C 188.929688 215.9375 188.820312 216.859375 188.847656 217.765625 C 188.878906 218.976562 189.125 220.175781 189.402344 221.355469 C 189.917969 223.503906 190.597656 225.605469 191.246094 227.71875 C 191.832031 229.640625 192.441406 231.570312 192.714844 233.566406 C 192.753906 233.835938 192.753906 234.109375 192.734375 234.382812 C 192.683594 234.382812 192.628906 234.375 192.578125 234.367188 C 192.464844 234.238281 192.386719 234.082031 192.308594 233.929688 C 191.847656 233.035156 191.496094 232.089844 191.117188 231.15625 C 189.75 227.753906 188.511719 224.289062 186.9375 220.972656 C 186.566406 220.152344 186.136719 219.359375 185.691406 218.574219 C 185.050781 217.457031 184.328125 216.382812 183.488281 215.410156 C 183.285156 215.203125 183.074219 215.011719 182.878906 214.804688 C 182.664062 214.558594 182.390625 214.378906 182.117188 214.207031 C 181.769531 214.007812 181.351562 213.898438 180.949219 213.976562 C 180.4375 214.050781 179.941406 214.210938 179.449219 214.367188 C 179.851562 215.015625 180.449219 215.511719 180.949219 216.082031 C 181.527344 216.722656 182.089844 217.417969 182.378906 218.246094 C 182.675781 219.097656 182.605469 220.03125 182.386719 220.894531 C 182.15625 221.855469 181.773438 222.769531 181.398438 223.683594 C 181.164062 224.246094 180.886719 224.789062 180.636719 225.347656 C 180.476562 225.699219 180.277344 226.027344 180.089844 226.367188 C 179.925781 226.640625 179.769531 226.941406 179.496094 227.125 C 179.460938 227.042969 179.421875 226.960938 179.441406 226.867188 C 179.484375 226.457031 179.585938 226.054688 179.675781 225.652344 C 179.941406 224.480469 180.203125 223.304688 180.292969 222.105469 C 180.394531 220.871094 180.21875 219.625 179.859375 218.441406 C 179.585938 217.476562 179.191406 216.554688 178.789062 215.636719 C 178.648438 215.320312 178.515625 215 178.421875 214.664062 C 178.179688 214.726562 177.9375 214.789062 177.703125 214.867188 C 178.023438 215.65625 178.539062 216.34375 178.898438 217.113281 C 179.355469 218.0625 179.585938 219.105469 179.710938 220.148438 C 179.785156 220.734375 179.769531 221.328125 179.761719 221.917969 C 179.710938 222.925781 179.429688 223.898438 179.148438 224.863281 C 178.664062 226.414062 178.410156 228.03125 178.296875 229.652344 C 178.226562 230.175781 178.261719 230.726562 178.097656 231.234375 C 177.972656 231.132812 177.941406 230.972656 177.90625 230.824219 C 177.679688 229.769531 177.6875 228.683594 177.707031 227.609375 C 177.8125 225.636719 178.351562 223.710938 178.351562 221.730469 C 178.308594 219.441406 177.625 217.230469 177.027344 215.039062 C 176.824219 215.066406 176.628906 215.113281 176.429688 215.15625 C 176.644531 215.695312 176.796875 216.253906 176.980469 216.804688 C 177.503906 218.480469 177.898438 220.246094 177.710938 222.011719 C 177.648438 223.082031 177.40625 224.132812 177.261719 225.199219 C 177.140625 226.027344 177.027344 226.863281 177.050781 227.703125 C 177.015625 228.761719 177.222656 229.804688 177.476562 230.824219 C 177.625 231.441406 177.789062 232.054688 177.964844 232.664062 C 178.082031 233.113281 178.222656 233.558594 178.242188 234.023438 C 178.25 233.941406 178.25 233.863281 178.261719 233.785156 C 178.316406 233.863281 178.242188 233.976562 178.230469 234.066406 C 178.101562 234.050781 178.035156 233.90625 177.964844 233.8125 C 177.433594 232.96875 177.019531 232.0625 176.632812 231.144531 C 175.933594 229.414062 175.339844 227.617188 175.1875 225.746094 C 175.117188 225.171875 175.136719 224.59375 175.132812 224.019531 C 175.121094 221.742188 175.671875 219.515625 175.789062 217.25 C 175.796875 216.597656 175.707031 215.929688 175.449219 215.328125 C 175.164062 215.320312 174.886719 215.386719 174.605469 215.375 C 173.535156 215.40625 172.425781 215.222656 171.496094 214.664062 C 171.089844 214.433594 170.75 214.109375 170.429688 213.773438 C 169.773438 213.164062 169.371094 212.328125 168.707031 211.71875 C 168.46875 211.503906 168.28125 211.242188 168.019531 211.054688 C 167.761719 210.855469 167.527344 210.632812 167.261719 210.453125 C 166.96875 210.230469 166.78125 209.910156 166.554688 209.625 C 166.078125 208.921875 165.789062 208.109375 165.597656 207.285156 C 165.34375 206.242188 165.222656 205.164062 165.238281 204.089844 C 165.210938 202.089844 165.730469 200.109375 166.597656 198.320312 C 167.089844 197.292969 167.65625 196.304688 168.214844 195.316406 C 168.710938 194.414062 169.269531 193.503906 169.429688 192.46875 C 169.523438 191.609375 169.34375 190.75 169.195312 189.90625 C 169.082031 189.320312 168.980469 188.734375 168.863281 188.152344 C 167.902344 188.191406 166.941406 188.152344 165.980469 188.152344 C 164.960938 188.097656 163.945312 188.019531 162.933594 187.898438 C 160.757812 187.640625 158.589844 187.3125 156.4375 186.90625 C 155.542969 186.734375 154.652344 186.515625 153.789062 186.226562 C 152.898438 185.917969 152.011719 185.554688 151.25 184.988281 C 150.914062 184.707031 150.582031 184.382812 150.464844 183.949219 C 150.355469 183.589844 150.46875 183.175781 150.75 182.921875 C 151.105469 182.597656 151.570312 182.4375 152.015625 182.28125 C 153.15625 181.910156 154.324219 181.636719 155.453125 181.230469 C 156.179688 180.984375 156.863281 180.628906 157.503906 180.207031 C 158.140625 179.78125 158.804688 179.390625 159.535156 179.15625 C 161.488281 178.5 163.550781 178.261719 165.503906 177.613281 C 166.246094 177.371094 166.960938 177.035156 167.609375 176.601562 C 167.753906 176.5 167.917969 176.414062 168 176.253906 C 168.773438 174.8125 169.925781 173.640625 170.976562 172.410156 C 172.164062 171.046875 173.257812 169.597656 174.144531 168.019531 C 175.488281 165.660156 176.265625 163.035156 176.945312 160.421875 C 177.148438 159.613281 177.367188 158.800781 177.46875 157.972656 C 177.464844 157.636719 177.535156 157.265625 177.351562 156.960938 C 177.183594 156.695312 176.855469 156.628906 176.5625 156.605469 C 175.488281 156.515625 174.40625 156.503906 173.347656 156.3125 C 173.0625 156.257812 172.769531 156.171875 172.550781 155.972656 C 172.46875 155.902344 172.40625 155.773438 172.488281 155.675781 C 172.640625 155.464844 172.902344 155.382812 173.132812 155.289062 C 173.894531 155.015625 174.6875 154.828125 175.457031 154.582031 C 176.460938 154.269531 177.417969 153.839844 178.394531 153.460938 C 179.289062 153.113281 180.207031 152.832031 181.148438 152.632812 C 181.601562 152.542969 182.066406 152.460938 182.535156 152.46875 C 182.785156 152.476562 183.074219 152.53125 183.226562 152.753906 C 183.402344 153.03125 183.390625 153.371094 183.429688 153.683594 C 183.488281 155.542969 183.242188 157.394531 182.972656 159.230469 C 182.84375 160.167969 182.699219 161.101562 182.578125 162.039062 C 182.488281 162.695312 182.417969 163.359375 182.476562 164.023438 C 182.515625 164.214844 182.644531 164.496094 182.882812 164.445312 C 183.0625 164.324219 183.164062 164.121094 183.261719 163.933594 C 183.496094 163.457031 183.679688 162.957031 183.894531 162.46875 C 184.507812 161.027344 185.269531 159.640625 186.191406 158.371094 C 187.25 156.917969 188.476562 155.59375 189.792969 154.367188 C 191.167969 153.101562 192.652344 151.949219 194.265625 151.003906 C 196.289062 149.8125 198.5 148.964844 200.769531 148.378906 C 203.007812 147.800781 205.296875 147.445312 207.589844 147.183594 C 210.125 146.894531 212.671875 146.730469 215.222656 146.617188 M 165.246094 178.261719 C 164.195312 178.46875 163.148438 178.699219 162.125 179.011719 C 161.691406 179.148438 161.257812 179.292969 160.859375 179.511719 C 160.457031 179.738281 160.09375 180.027344 159.683594 180.242188 C 159.296875 180.449219 158.894531 180.625 158.488281 180.777344 C 156.730469 181.453125 154.902344 181.929688 153.132812 182.566406 C 152.949219 182.632812 152.765625 182.703125 152.625 182.84375 C 152.902344 182.929688 153.191406 182.921875 153.476562 182.933594 C 153.929688 182.933594 154.382812 182.933594 154.835938 182.910156 C 154.730469 182.871094 154.613281 182.921875 154.511719 182.867188 C 155.007812 182.933594 155.503906 182.832031 155.996094 182.769531 C 157.160156 182.597656 158.269531 182.210938 159.382812 181.851562 C 160.355469 181.535156 161.351562 181.273438 162.351562 181.058594 C 163.292969 180.859375 164.242188 180.679688 165.203125 180.601562 C 165.765625 180.566406 166.351562 180.554688 166.878906 180.773438 C 167.066406 180.84375 167.222656 180.972656 167.382812 181.089844 C 167.160156 180.007812 167.054688 178.871094 167.359375 177.796875 C 166.675781 178.027344 165.953125 178.117188 165.246094 178.261719 Z M 165.246094 178.261719 " fill-opacity="1" fill-rule="nonzero"/></g><path fill="#ffffff" d="M 189.253906 179.363281 C 189.894531 178.980469 190.652344 178.835938 191.390625 178.867188 C 192.367188 178.902344 193.328125 179.09375 194.277344 179.316406 C 194.949219 179.484375 195.621094 179.652344 196.273438 179.882812 C 196.546875 179.988281 196.839844 180.097656 197.039062 180.328125 C 197.171875 180.472656 197.183594 180.691406 197.113281 180.867188 C 196.972656 181.230469 196.667969 181.488281 196.398438 181.753906 C 195.824219 182.25 195.167969 182.660156 194.460938 182.941406 C 193.878906 183.171875 193.242188 183.296875 192.621094 183.214844 C 191.820312 183.148438 191.070312 182.828125 190.34375 182.511719 C 189.757812 182.253906 189.148438 182.011719 188.503906 181.972656 C 187.84375 181.910156 187.214844 182.144531 186.574219 182.253906 C 186.46875 182.277344 186.359375 182.253906 186.277344 182.179688 C 186.300781 182 186.425781 181.859375 186.535156 181.726562 C 186.929688 181.265625 187.378906 180.859375 187.828125 180.457031 C 188.28125 180.0625 188.734375 179.664062 189.253906 179.363281 Z M 189.253906 179.363281 " fill-opacity="1" fill-rule="nonzero"/><g fill="#000000" fill-opacity="1"><g transform="translate(123.746648, 242.122274)"><g><path d="M 5.617188 5.746094 C 6.414062 6.515625 7.648438 7.480469 9.46875 8.390625 L 11.066406 6.742188 C 11.886719 5.890625 13 5.753906 13.835938 6.566406 L 14.082031 6.3125 L 13.402344 5.65625 C 12.789062 5.066406 12.132812 4.789062 11.585938 4.902344 C 11.691406 4.335938 11.421875 3.738281 10.769531 3.109375 L 9.507812 1.886719 L 9.261719 2.140625 C 10.832031 3.65625 10.53125 4.578125 9.773438 5.363281 L 8.628906 6.546875 C 7.695312 6.3125 6.863281 5.867188 6.171875 5.199219 C 3.921875 3.023438 4.875 -0.328125 7.0625 -2.589844 C 9.1875 -4.785156 12.234375 -5.671875 14.628906 -3.328125 C 16.054688 -1.925781 16.636719 -0.742188 15.351562 1.648438 L 15.699219 1.980469 L 16.160156 1.503906 C 16.792969 0.851562 17.03125 0.335938 16.957031 -0.382812 C 17.3125 -0.0859375 17.796875 -0.1875 18.296875 -0.703125 L 18.453125 -0.863281 L 18.105469 -1.199219 C 17.703125 -1.074219 17.519531 -1.175781 17.195312 -1.617188 C 16.769531 -2.210938 16.300781 -2.738281 15.515625 -3.5 C 11.941406 -6.960938 7.753906 -6.710938 5.066406 -3.929688 C 2.390625 -1.164062 2.503906 2.734375 5.617188 5.746094 Z M 5.617188 5.746094 "/></g></g></g><g fill="#000000" fill-opacity="1"><g transform="translate(136.613777, 254.241679)"><g><path d="M 6.515625 4.273438 C 10.121094 6.503906 14.148438 5.691406 16.253906 2.292969 C 18.269531 -0.964844 17.300781 -4.917969 13.917969 -7.011719 C 10.378906 -9.203125 6.285156 -8.429688 4.257812 -5.15625 C 2.171875 -1.789062 3.101562 2.160156 6.515625 4.273438 Z M 7.261719 3.84375 C 4.792969 2.3125 4.554688 -1.488281 6.671875 -4.902344 C 8.238281 -7.4375 10.757812 -8.097656 13.292969 -6.527344 C 15.636719 -5.078125 15.839844 -1.1875 13.785156 2.132812 C 12.195312 4.699219 9.6875 5.34375 7.261719 3.84375 Z M 7.261719 3.84375 "/></g></g></g><g fill="#000000" fill-opacity="1"><g transform="translate(152.600104, 263.708365)"><g><path d="M 0.347656 0.125 C 1.21875 0.4375 1.863281 0.394531 2.316406 0.0625 C 2.457031 0.605469 3.011719 1.082031 3.796875 1.363281 L 4.652344 1.667969 L 4.808594 1.230469 C 3.855469 0.871094 2.875 -0.0117188 4.039062 -1.5 L 5.59375 -3.480469 L 10.347656 -1.773438 L 10.445312 1.523438 C 10.472656 2.753906 9.578125 2.84375 8.621094 2.601562 L 8.464844 3.035156 L 9.214844 3.304688 C 10.070312 3.609375 10.730469 3.574219 11.183594 3.242188 C 11.324219 3.785156 11.863281 4.253906 12.664062 4.542969 L 13.1875 4.730469 L 13.34375 4.292969 C 12.457031 3.640625 12.425781 2.84375 12.363281 1.761719 L 11.816406 -7.617188 C 11.773438 -8.320312 11.71875 -8.988281 12.039062 -9.5625 C 11.203125 -9.863281 10.5625 -9.660156 10.230469 -9.445312 C 10.089844 -9.988281 9.617188 -10.429688 9.199219 -10.582031 L 8.46875 -10.84375 L 8.3125 -10.40625 C 9.257812 -9.96875 9.386719 -9.175781 8.628906 -8.328125 L 3.136719 -2.117188 C 1.816406 -0.625 1.1875 -0.242188 0.363281 -0.359375 L 0.210938 0.0742188 Z M 10.011719 -8.460938 L 10.269531 -2.765625 L 6.210938 -4.222656 Z M 10.011719 -8.460938 "/></g></g></g><g fill="#000000" fill-opacity="1"><g transform="translate(168.530141, 269.138654)"><g><path d="M 5.144531 0.757812 C 6.042969 0.890625 6.683594 0.722656 7.0625 0.308594 C 7.304688 0.8125 7.964844 1.171875 8.769531 1.289062 L 10.527344 1.550781 L 10.574219 1.21875 C 8.046875 0.363281 8.144531 -0.183594 8.285156 -1.136719 L 9.421875 -8.84375 C 9.539062 -9.652344 9.808594 -11.105469 11.859375 -10.804688 C 12.683594 -10.683594 13.988281 -10.15625 14.320312 -7.433594 L 14.777344 -7.363281 L 14.878906 -8.058594 C 14.980469 -8.738281 14.984375 -9.410156 14.441406 -10.050781 C 14.910156 -10.039062 15.226562 -10.421875 15.328125 -11.097656 L 15.363281 -11.335938 L 14.902344 -11.40625 C 14.628906 -11.054688 14.371094 -11.089844 13.875 -11.164062 L 3.84375 -12.640625 C 3.347656 -12.714844 3.09375 -12.75 2.929688 -13.167969 L 2.472656 -13.234375 L 2.4375 -12.996094 C 2.335938 -12.320312 2.53125 -11.859375 2.980469 -11.738281 C 2.277344 -11.28125 2.089844 -10.636719 1.988281 -9.957031 L 1.886719 -9.261719 L 2.34375 -9.195312 C 3.445312 -11.707031 4.847656 -11.835938 5.671875 -11.714844 C 7.722656 -11.414062 7.5625 -9.941406 7.441406 -9.136719 L 6.308594 -1.429688 C 6.15625 -0.382812 5.996094 0.0585938 3.4375 0.167969 L 3.386719 0.5 Z M 5.144531 0.757812 "/></g></g></g><g fill="#000000" fill-opacity="1"><g transform="translate(184.721412, 271.052772)"><g/></g></g><g fill="#000000" fill-opacity="1"><g transform="translate(192.490829, 271.162733)"><g><path d="M 1.816406 -0.238281 C 2.714844 -0.355469 3.289062 -0.691406 3.539062 -1.191406 C 3.910156 -0.773438 4.605469 -0.601562 5.449219 -0.714844 L 6.882812 -0.898438 L 6.820312 -1.359375 C 4.835938 -1.265625 4.421875 -1.734375 4.265625 -2.910156 L 3.730469 -7.019531 L 5.730469 -7.28125 C 7.070312 -7.457031 8.449219 -7.039062 8.847656 -5.5625 L 9.175781 -5.605469 L 9.09375 -6.230469 C 8.984375 -7.074219 8.640625 -7.699219 8.140625 -7.953125 C 8.558594 -8.324219 8.742188 -8.945312 8.621094 -9.863281 L 8.5625 -10.300781 L 8.175781 -10.253906 C 8.28125 -9.035156 7.03125 -8.160156 5.96875 -8.023438 L 3.636719 -7.71875 L 3.207031 -11.003906 C 3.042969 -12.269531 3.488281 -13 5.359375 -13.242188 C 7.726562 -13.554688 9.058594 -13.371094 10.171875 -10.847656 L 10.628906 -10.910156 L 10.546875 -11.550781 C 10.449219 -12.285156 10.257812 -12.894531 9.582031 -13.347656 C 10.035156 -13.460938 10.234375 -13.917969 10.148438 -14.597656 L 10.109375 -14.890625 L 9.648438 -14.832031 C 9.5 -14.417969 9.222656 -14.382812 8.746094 -14.320312 L 4.855469 -13.8125 C 3.132812 -13.585938 2.46875 -13.238281 2.03125 -12.714844 C 1.660156 -13.132812 1.019531 -13.308594 0.121094 -13.191406 L -1.21875 -13.015625 L -1.15625 -12.558594 C 1.058594 -12.4375 1.117188 -12.015625 1.285156 -10.730469 L 2.339844 -2.65625 C 2.511719 -1.335938 1.957031 -0.871094 0.324219 -0.507812 L 0.386719 -0.0507812 Z M 1.816406 -0.238281 "/></g></g></g><g fill="#000000" fill-opacity="1"><g transform="translate(207.400978, 269.052955)"><g><path d="M 0.351562 -0.117188 C 1.230469 -0.40625 1.710938 -0.835938 1.867188 -1.375 C 2.308594 -1.035156 3.039062 -1.003906 3.832031 -1.261719 L 4.691406 -1.546875 L 4.546875 -1.988281 C 3.574219 -1.683594 2.257812 -1.777344 2.257812 -3.667969 L 2.265625 -6.183594 L 7.066406 -7.765625 L 9.167969 -5.226562 C 9.949219 -4.273438 9.300781 -3.652344 8.398438 -3.253906 L 8.542969 -2.816406 L 9.296875 -3.066406 C 10.160156 -3.347656 10.65625 -3.785156 10.8125 -4.324219 C 11.253906 -3.984375 11.96875 -3.945312 12.777344 -4.210938 L 13.304688 -4.386719 L 13.160156 -4.824219 C 12.058594 -4.792969 11.546875 -5.40625 10.828125 -6.21875 L 4.625 -13.273438 C 4.160156 -13.804688 3.703125 -14.296875 3.605469 -14.945312 C 2.761719 -14.667969 2.382812 -14.113281 2.25 -13.738281 C 1.808594 -14.082031 1.164062 -14.140625 0.742188 -14 L 0.00390625 -13.757812 L 0.148438 -13.320312 C 1.160156 -13.554688 1.75 -13.007812 1.675781 -11.875 L 1.171875 -3.601562 C 1.046875 -1.613281 0.789062 -0.921875 0.0664062 -0.507812 L 0.210938 -0.0703125 Z M 2.6875 -12.832031 L 6.394531 -8.5 L 2.300781 -7.148438 Z M 2.6875 -12.832031 "/></g></g></g><g fill="#000000" fill-opacity="1"><g transform="translate(223.325918, 263.541719)"><g><path d="M 1.542969 -0.882812 C 2.328125 -1.332031 2.730469 -1.859375 2.773438 -2.417969 C 3.277344 -2.171875 3.984375 -2.28125 4.722656 -2.703125 L 5.910156 -3.382812 L 5.679688 -3.785156 C 3.683594 -3.214844 3.367188 -3.355469 2.695312 -4.527344 L 0.859375 -7.742188 L 0.890625 -7.757812 C 2.847656 -8.878906 7.867188 -6.59375 9.300781 -5.324219 L 9.589844 -5.488281 C 10.117188 -5.792969 10.414062 -6.132812 10.128906 -6.628906 C 10.808594 -6.484375 11.597656 -6.636719 12.238281 -7.003906 L 12.398438 -7.097656 L 12.167969 -7.5 C 8.820312 -7.242188 6.03125 -10.0625 2.976562 -9.101562 L 2.960938 -9.136719 C 4.898438 -10.332031 6.691406 -12.488281 5.578125 -14.429688 C 4.367188 -16.550781 1.894531 -16.136719 -0.5 -14.769531 C -2.007812 -13.902344 -2.796875 -13.15625 -3 -12.503906 C -3.503906 -12.75 -4.144531 -12.679688 -4.949219 -12.222656 L -6.121094 -11.550781 L -5.890625 -11.148438 C -3.964844 -11.695312 -3.617188 -11.574219 -3.066406 -10.613281 L 0.976562 -3.542969 C 1.675781 -2.324219 1.515625 -1.933594 0.109375 -0.59375 L 0.335938 -0.191406 Z M -1.292969 -11.5 C -1.84375 -12.460938 -2.128906 -13.070312 -0.539062 -13.980469 C 1.390625 -15.082031 2.921875 -14.53125 3.792969 -13.003906 C 4.605469 -11.589844 3.832031 -10.296875 1.855469 -9.164062 L 0.488281 -8.382812 Z M -1.292969 -11.5 "/></g></g></g><g fill="#000000" fill-opacity="1"><g transform="translate(238.333829, 254.838715)"><g><path d="M 4.03125 -17.890625 C 2.878906 -18.890625 2.886719 -19.507812 3.566406 -20.488281 L 3.253906 -20.828125 L 3.007812 -20.601562 C 2.507812 -20.136719 2.25 -19.542969 2.371094 -19.027344 C 1.855469 -19.179688 1.339844 -19.054688 0.753906 -18.515625 C 1.347656 -17.875 1.652344 -17.273438 1.851562 -16.703125 L 4.917969 -8.117188 L -2.625 -11.871094 C -3.566406 -12.339844 -4.242188 -12.796875 -4.753906 -13.40625 L -4.78125 -13.382812 C -5.3125 -12.890625 -5.527344 -12.335938 -5.40625 -11.820312 C -5.921875 -11.972656 -6.464844 -11.820312 -7.035156 -11.292969 L -7.484375 -10.878906 L -7.167969 -10.539062 C -6.03125 -11.191406 -5.410156 -10.984375 -4.515625 -9.71875 L -0.0273438 -3.378906 C 0.730469 -2.316406 0.800781 -1.777344 -0.125 -0.515625 L 0.191406 -0.175781 L 0.582031 -0.539062 C 1.25 -1.15625 1.519531 -1.761719 1.4375 -2.316406 C 1.980469 -2.191406 2.660156 -2.464844 3.269531 -3.03125 L 3.679688 -3.410156 L 3.363281 -3.75 C 2.289062 -3.082031 1.179688 -3.109375 0.621094 -3.90625 L -3.976562 -10.445312 L 6.011719 -5.574219 L 6.746094 -6.253906 L 3.15625 -16.171875 L 8.808594 -11.242188 C 9.605469 -10.542969 9.582031 -9.941406 8.699219 -8.691406 L 9.011719 -8.351562 L 9.800781 -9.082031 C 10.464844 -9.699219 10.738281 -10.304688 10.652344 -10.855469 C 11.199219 -10.730469 11.863281 -10.996094 12.488281 -11.574219 L 13.273438 -12.304688 L 12.960938 -12.640625 C 11.550781 -11.738281 10.980469 -11.890625 9.6875 -13.015625 Z M 4.03125 -17.890625 "/></g></g></g><g fill="#000000" fill-opacity="1"><g transform="translate(118.800939, 163.285398)"><g><path d="M -3.132812 -12.824219 C -3.585938 -19.433594 -3.835938 -22.683594 -2.558594 -26.652344 L -3.078125 -27.007812 L -4.183594 -25.386719 C -5.121094 -24.015625 -5.339844 -23.066406 -5.203125 -22.152344 C -5.820312 -22.363281 -6.59375 -21.851562 -7.273438 -20.855469 L -8.183594 -19.527344 L -7.664062 -19.171875 C -6.574219 -20.316406 -5.835938 -20.910156 -5.253906 -20.511719 C -4.238281 -19.820312 -3.632812 -13.378906 -4.285156 -10.503906 L -8.527344 -13.394531 C -9.917969 -14.34375 -9.800781 -15.054688 -8.882812 -17.382812 L -9.402344 -17.738281 L -10.492188 -16.136719 C -11.160156 -15.160156 -11.363281 -14.234375 -11.085938 -13.527344 C -11.84375 -13.527344 -12.605469 -13.039062 -13.296875 -12.023438 L -14.332031 -10.503906 L -13.8125 -10.152344 C -11.699219 -12 -11.234375 -12.015625 -10.132812 -11.261719 L -0.59375 -4.757812 C 0.46875 -4.035156 0.867188 -3.550781 -0.207031 -0.8125 L 0.3125 -0.457031 L 1.375 -2.015625 C 2.070312 -3.035156 2.246094 -3.917969 1.96875 -4.625 C 2.726562 -4.625 3.527344 -5.175781 4.179688 -6.132812 L 5.246094 -7.691406 L 4.722656 -8.042969 C 2.835938 -6.347656 2.304688 -6.011719 0.910156 -6.960938 L -3.746094 -10.136719 L 2.976562 -12.3125 C 6.695312 -13.523438 7.992188 -14.039062 6.964844 -11.328125 L 7.484375 -10.972656 L 8.390625 -12.304688 C 9.097656 -13.34375 9.261719 -14.207031 8.839844 -14.707031 C 9.742188 -14.914062 10.574219 -15.503906 11.480469 -16.835938 L 12.375 -18.144531 L 11.855469 -18.5 C 11.046875 -18.074219 9.664062 -17.160156 7.757812 -16.511719 Z M -3.132812 -12.824219 "/></g></g></g><g fill="#000000" fill-opacity="1"><g transform="translate(131.960236, 144.502605)"><g><path d="M 0.386719 -0.320312 C 1.359375 -1.117188 1.757812 -1.902344 1.6875 -2.660156 C 2.417969 -2.445312 3.359375 -2.765625 4.234375 -3.484375 L 5.1875 -4.269531 L 4.789062 -4.753906 C 3.703125 -3.894531 1.988281 -3.363281 1.058594 -5.757812 L -0.167969 -8.953125 L 5.136719 -13.316406 L 9.054688 -11.128906 C 10.511719 -10.308594 9.992188 -9.199219 9.042969 -8.253906 L 9.441406 -7.769531 L 10.277344 -8.457031 C 11.226562 -9.238281 11.644531 -10.039062 11.578125 -10.796875 C 12.304688 -10.582031 13.230469 -10.886719 14.121094 -11.621094 L 14.707031 -12.101562 L 14.304688 -12.585938 C 12.925781 -12.003906 11.976562 -12.527344 10.667969 -13.207031 L -0.664062 -19.097656 C -1.515625 -19.539062 -2.332031 -19.941406 -2.777344 -20.714844 C -3.707031 -19.949219 -3.921875 -19.058594 -3.902344 -18.519531 C -4.632812 -18.734375 -5.476562 -18.492188 -5.941406 -18.109375 L -6.757812 -17.4375 L -6.359375 -16.953125 C -5.191406 -17.75 -4.175781 -17.347656 -3.710938 -15.875 L -0.285156 -5.140625 C 0.535156 -2.558594 0.542969 -1.554688 -0.167969 -0.675781 L 0.234375 -0.191406 Z M -2.902344 -17.582031 L 3.925781 -13.917969 L -0.601562 -10.191406 Z M -2.902344 -17.582031 "/></g></g></g><g fill="#000000" fill-opacity="1"><g transform="translate(147.596348, 131.863849)"><g><path d="M 5.699219 -12.914062 C 7.601562 -13.953125 10.296875 -16.101562 8.945312 -19.050781 C 7.308594 -22.617188 2.949219 -20.894531 1.28125 -20.128906 L 0.9375 -19.972656 C -1.28125 -18.953125 -2.160156 -18.160156 -2.515625 -17.308594 C -3.167969 -17.699219 -4.070312 -17.675781 -5.191406 -17.160156 L -6.835938 -16.40625 L -6.574219 -15.832031 C -4.269531 -16.363281 -3.511719 -16.160156 -2.453125 -13.847656 L 1.492188 -5.253906 C 2.542969 -2.964844 2.355469 -2.050781 0.261719 -0.8125 L 0.527344 -0.242188 L 2.21875 -1.019531 C 3.316406 -1.519531 3.945312 -2.199219 4.070312 -2.949219 C 4.953125 -2.660156 6.128906 -2.8125 8.34375 -3.828125 C 12.324219 -5.65625 14.683594 -8.234375 13.289062 -11.273438 C 11.933594 -14.222656 8.75 -13.867188 5.710938 -12.890625 Z M -0.417969 -15.75 C -1.007812 -17.03125 -1.039062 -18.066406 0.902344 -18.960938 C 3.578125 -20.1875 5.441406 -19.324219 6.324219 -17.40625 C 7.5625 -14.707031 5.453125 -13.269531 2.984375 -12.136719 L 1.542969 -11.476562 Z M 8.289062 -4.855469 C 5.589844 -3.617188 4.597656 -4.820312 3.96875 -6.195312 L 1.941406 -10.605469 L 3.703125 -11.414062 C 7.335938 -13.082031 9.625 -11.835938 10.601562 -9.710938 C 11.691406 -7.332031 10.394531 -5.820312 8.289062 -4.855469 Z M 8.289062 -4.855469 "/></g></g></g><g fill="#000000" fill-opacity="1"><g transform="translate(164.774993, 124.001216)"><g><path d="M 0.496094 -0.0859375 C 1.734375 -0.300781 2.46875 -0.785156 2.78125 -1.480469 C 3.3125 -0.933594 4.289062 -0.746094 5.402344 -0.9375 L 6.617188 -1.148438 L 6.511719 -1.769531 C 5.144531 -1.558594 3.390625 -1.941406 3.765625 -4.484375 L 4.277344 -7.867188 L 11.042969 -9.042969 L 13.367188 -5.207031 C 14.230469 -3.773438 13.230469 -3.0625 11.9375 -2.710938 L 12.046875 -2.09375 L 13.113281 -2.277344 C 14.328125 -2.488281 15.082031 -2.976562 15.398438 -3.667969 C 15.925781 -3.125 16.878906 -2.929688 18.019531 -3.128906 L 18.761719 -3.257812 L 18.65625 -3.878906 C 17.167969 -4.054688 16.601562 -4.976562 15.796875 -6.214844 L 8.855469 -16.933594 C 8.332031 -17.738281 7.820312 -18.492188 7.816406 -19.382812 C 6.628906 -19.175781 6.003906 -18.507812 5.753906 -18.03125 C 5.226562 -18.578125 4.371094 -18.785156 3.777344 -18.683594 L 2.734375 -18.5 L 2.84375 -17.882812 C 4.253906 -18 4.9375 -17.148438 4.613281 -15.636719 L 2.289062 -4.609375 C 1.726562 -1.960938 1.242188 -1.082031 0.191406 -0.671875 L 0.296875 -0.0507812 Z M 6.160156 -16.722656 L 10.289062 -10.160156 L 4.511719 -9.160156 Z M 6.160156 -16.722656 "/></g></g></g><g fill="#000000" fill-opacity="1"><g transform="translate(184.613032, 120.734569)"><g><path d="M 11.332031 -8.414062 C 13.503906 -8.375 16.90625 -8.914062 17.1875 -12.148438 C 17.523438 -16.058594 12.886719 -16.710938 11.054688 -16.871094 L 10.679688 -16.902344 C 8.25 -17.113281 7.089844 -16.859375 6.359375 -16.292969 C 5.988281 -16.957031 5.191406 -17.378906 3.960938 -17.484375 L 2.15625 -17.640625 L 2.105469 -17.015625 C 4.367188 -16.339844 4.925781 -15.785156 4.707031 -13.253906 L 3.890625 -3.828125 C 3.675781 -1.324219 3.058594 -0.617188 0.628906 -0.578125 L 0.578125 0.0507812 L 2.429688 0.210938 C 3.632812 0.316406 4.515625 0.0390625 4.996094 -0.550781 C 5.621094 0.132812 6.71875 0.582031 9.148438 0.792969 C 13.507812 1.167969 16.835938 0.09375 17.121094 -3.238281 C 17.402344 -6.472656 14.457031 -7.738281 11.332031 -8.386719 Z M 7.414062 -13.902344 C 7.535156 -15.304688 8.019531 -16.222656 10.148438 -16.039062 C 13.082031 -15.785156 14.277344 -14.117188 14.09375 -12.011719 C 13.839844 -9.054688 11.296875 -8.84375 8.589844 -9.078125 L 7.007812 -9.214844 Z M 9.605469 -0.128906 C 6.648438 -0.382812 6.378906 -1.921875 6.507812 -3.425781 L 6.925781 -8.261719 L 8.855469 -8.097656 C 12.84375 -7.75 14.214844 -5.535156 14.015625 -3.207031 C 13.789062 -0.597656 11.914062 0.0703125 9.605469 -0.128906 Z M 9.605469 -0.128906 "/></g></g></g><g fill="#000000" fill-opacity="1"><g transform="translate(203.63049, 122.774853)"><g><path d="M 4.898438 1.867188 C 8.734375 3.082031 10.003906 0.078125 10.777344 -2.367188 L 13.289062 -10.308594 C 13.992188 -12.539062 14.667969 -12.746094 17.304688 -12.492188 L 17.492188 -13.09375 L 15.597656 -13.691406 C 14.496094 -14.042969 13.527344 -13.980469 12.929688 -13.507812 C 12.710938 -14.238281 12 -14.832031 10.851562 -15.195312 L 9.148438 -15.734375 L 8.957031 -15.132812 C 11.167969 -13.777344 11.453125 -13.261719 10.769531 -11.105469 L 7.824219 -1.796875 C 7.339844 -0.261719 6.824219 1.367188 5.191406 0.851562 C 3.679688 0.375 3.757812 -0.949219 4.074219 -1.957031 C 4.363281 -2.867188 5.140625 -3.570312 6.40625 -4.570312 L 6.125 -5.1875 C 4.640625 -4.496094 1.996094 -4.222656 1.425781 -2.425781 C 0.988281 -1.035156 1.539062 0.804688 4.898438 1.867188 Z M 4.898438 1.867188 "/></g></g></g><g fill="#000000" fill-opacity="1"><g transform="translate(217.102026, 126.942139)"><g><path d="M 13.199219 8.085938 L 13.335938 7.847656 C 13.820312 6.996094 13.726562 6.300781 13.28125 5.960938 C 14.136719 5.785156 14.78125 5.3125 15.417969 4.199219 L 15.878906 3.390625 L 15.335938 3.078125 C 12.625 5.644531 10.9375 5.144531 9.082031 4.085938 C 6.21875 2.449219 6.421875 1.234375 7.21875 -0.164062 L 9.738281 -4.578125 L 11.445312 -3.605469 C 13.171875 -2.617188 14.140625 -1.023438 13.386719 0.808594 L 13.800781 1.042969 L 14.226562 0.300781 C 14.761719 -0.636719 14.929688 -1.644531 14.609375 -2.347656 C 15.367188 -2.40625 16.097656 -2.976562 16.695312 -4.023438 L 16.996094 -4.546875 L 16.515625 -4.824219 C 15.625 -3.417969 13.621094 -3.460938 12.289062 -4.222656 L 10.214844 -5.40625 L 12.570312 -9.535156 C 13.183594 -10.605469 13.929688 -11.457031 16.550781 -9.960938 C 18.820312 -8.660156 20.082031 -7.421875 19.25 -3.78125 L 19.796875 -3.46875 L 20.269531 -4.300781 C 20.894531 -5.390625 20.972656 -6.1875 20.703125 -7.035156 C 21.332031 -6.765625 21.929688 -7.207031 22.34375 -7.925781 L 22.503906 -8.210938 L 21.957031 -8.523438 C 21.414062 -8.226562 21.128906 -8.386719 20.539062 -8.726562 L 16.539062 -11.007812 C 14.816406 -11.992188 13.71875 -12.359375 12.644531 -12.101562 C 12.585938 -12.859375 12.0625 -13.566406 10.96875 -14.1875 L 9.332031 -15.125 L 9.019531 -14.578125 C 11.027344 -13.171875 11.085938 -12.210938 10.335938 -10.898438 L 4.675781 -0.980469 C 3.9375 0.308594 3.132812 0.804688 0.8125 -0.257812 L 0.503906 0.285156 L 2.164062 1.234375 C 3.253906 1.859375 4.128906 1.953125 4.8125 1.617188 C 5.023438 2.464844 5.679688 3.242188 7.40625 4.230469 L 11.730469 6.699219 C 12.320312 7.035156 12.605469 7.199219 12.652344 7.773438 Z M 13.199219 8.085938 "/></g></g></g><g fill="#000000" fill-opacity="1"><g transform="translate(232.472093, 135.840963)"><g><path d="M 10.949219 10.941406 L 11.136719 10.742188 C 11.808594 10.027344 11.875 9.332031 11.523438 8.894531 C 12.398438 8.921875 13.136719 8.613281 14.015625 7.679688 L 14.652344 7 L 14.191406 6.570312 C 10.957031 8.433594 9.4375 7.554688 7.878906 6.089844 C 5.476562 3.835938 5.957031 2.699219 7.058594 1.523438 L 10.539062 -2.179688 L 11.96875 -0.835938 C 13.417969 0.527344 13.988281 2.304688 12.828125 3.90625 L 13.175781 4.234375 L 13.761719 3.613281 C 14.503906 2.824219 14.902344 1.886719 14.753906 1.125 C 15.503906 1.246094 16.347656 0.863281 17.171875 -0.0195312 L 17.585938 -0.457031 L 17.183594 -0.835938 C 15.992188 0.320312 14.054688 -0.1875 12.9375 -1.238281 L 11.195312 -2.875 L 14.449219 -6.339844 C 15.292969 -7.238281 16.21875 -7.890625 18.417969 -5.824219 C 20.324219 -4.03125 21.261719 -2.53125 19.601562 0.8125 L 20.0625 1.246094 L 20.714844 0.546875 C 21.578125 -0.367188 21.835938 -1.125 21.773438 -2.011719 C 22.320312 -1.601562 23.007812 -1.890625 23.574219 -2.496094 L 23.800781 -2.734375 L 23.339844 -3.164062 C 22.742188 -3.003906 22.503906 -3.226562 22.007812 -3.691406 L 18.652344 -6.84375 C 17.203125 -8.207031 16.222656 -8.816406 15.121094 -8.816406 C 15.238281 -9.566406 14.894531 -10.375 13.976562 -11.238281 L 12.601562 -12.53125 L 12.171875 -12.070312 C 13.796875 -10.234375 13.628906 -9.285156 12.59375 -8.1875 L 4.773438 0.136719 C 3.757812 1.21875 2.859375 1.511719 0.851562 -0.0625 L 0.421875 0.394531 L 1.816406 1.707031 C 2.730469 2.566406 3.558594 2.863281 4.300781 2.695312 C 4.3125 3.566406 4.765625 4.480469 6.214844 5.839844 L 9.84375 9.25 C 10.339844 9.714844 10.578125 9.941406 10.488281 10.511719 Z M 10.949219 10.941406 "/></g></g></g><g fill="#000000" fill-opacity="1"><g transform="translate(245.362201, 147.992632)"><g><path d="M 8.941406 14.738281 L 9.175781 14.585938 C 9.980469 14.070312 10.246094 13.417969 9.996094 12.890625 C 10.835938 13.125 11.667969 12.976562 13.679688 11.683594 L 13.953125 11.503906 L 13.613281 10.976562 C 9.707031 12.117188 6.980469 8.730469 4.347656 4.648438 L 3.339844 3.085938 L 23.445312 4.6875 L 23.953125 4.363281 L 16.820312 -6.691406 C 16.449219 -7.265625 16.257812 -7.558594 16.539062 -8.101562 L 16.199219 -8.628906 L 15.925781 -8.449219 C 15.140625 -7.945312 14.847656 -7.335938 15.125 -6.765625 C 14.109375 -7.039062 13.34375 -6.785156 12.414062 -6.1875 L 11.613281 -5.667969 L 11.953125 -5.140625 C 15.914062 -6.378906 17.472656 -3.640625 20.855469 1.601562 L 21.113281 2.003906 L 1.160156 0.359375 L 0.503906 0.78125 L 8.28125 12.828125 C 8.648438 13.402344 8.828125 13.675781 8.601562 14.210938 Z M 8.941406 14.738281 "/></g></g></g></svg>